<svg width="58" height="52" viewBox="0 0 58 52" fill="none" xmlns="http://www.w3.org/2000/svg">
<path d="M34.8775 0.202492C34.5412 0.0386054 34.1656 -0.0276578 33.7935 0.0112321C33.4214 0.050122 33.0677 0.192606 32.7725 0.422493L15.3125 14H4C2.93913 14 1.92172 14.4214 1.17157 15.1716C0.421427 15.9217 0 16.9391 0 18V34C0 35.0609 0.421427 36.0783 1.17157 36.8284C1.92172 37.5786 2.93913 38 4 38H15.3125L32.7725 51.5775C33.068 51.8072 33.4219 51.9494 33.7942 51.9879C34.1664 52.0264 34.542 51.9597 34.8782 51.7953C35.2145 51.631 35.4978 51.3756 35.6961 51.0583C35.8944 50.7409 35.9997 50.3742 36 50V1.99999C36.0001 1.62531 35.8949 1.25815 35.6964 0.940349C35.4979 0.622547 35.2142 0.366883 34.8775 0.202492ZM4 18H14V34H4V18ZM32 45.91L18 35.0225V16.9775L32 6.08999V45.91ZM45.5 19.39C47.1087 21.2162 47.9961 23.5663 47.9961 26C47.9961 28.4337 47.1087 30.7838 45.5 32.61C45.1467 32.9982 44.6548 33.232 44.1306 33.2608C43.6065 33.2896 43.092 33.1112 42.6982 32.764C42.3044 32.4169 42.0629 31.9288 42.0258 31.4051C41.9888 30.8814 42.1591 30.3642 42.5 29.965C43.4646 28.8694 43.9968 27.4597 43.9968 26C43.9968 24.5403 43.4646 23.1306 42.5 22.035C42.1591 21.6358 41.9888 21.1185 42.0258 20.5949C42.0629 20.0712 42.3044 19.5831 42.6982 19.236C43.092 18.8888 43.6065 18.7103 44.1306 18.7392C44.6548 18.768 45.1467 19.0017 45.5 19.39ZM58 26C58.0029 30.9205 56.1895 35.6689 52.9075 39.335C52.5512 39.7205 52.0577 39.9505 51.5333 39.9753C51.009 40.0001 50.4959 39.8178 50.1048 39.4677C49.7137 39.1176 49.4759 38.6278 49.4427 38.1039C49.4095 37.58 49.5837 37.0641 49.9275 36.6675C52.551 33.7341 54.0014 29.9367 54.0014 26.0012C54.0014 22.0658 52.551 18.2684 49.9275 15.335C49.7474 15.1401 49.6079 14.9114 49.5171 14.6621C49.4263 14.4128 49.386 14.148 49.3985 13.8829C49.4111 13.6179 49.4762 13.358 49.5902 13.1184C49.7042 12.8788 49.8647 12.6643 50.0624 12.4874C50.2601 12.3104 50.491 12.1746 50.7417 12.0877C50.9924 12.0009 51.2579 11.9648 51.5227 11.9815C51.7875 11.9983 52.0463 12.0676 52.284 12.1854C52.5218 12.3031 52.7337 12.467 52.9075 12.6675C56.1903 16.332 58.0039 21.08 58 26Z" fill="#42D3FF"/>
</svg>
