<svg width="52" height="52" viewBox="0 0 52 52" fill="none" xmlns="http://www.w3.org/2000/svg">
<path d="M26 0C20.8577 0 15.8309 1.52487 11.5552 4.38179C7.27951 7.23871 3.94702 11.2994 1.97914 16.0502C0.0112654 20.8011 -0.503621 26.0288 0.499594 31.0723C1.50281 36.1159 3.97907 40.7486 7.61524 44.3848C11.2514 48.0209 15.8842 50.4972 20.9277 51.5004C25.9712 52.5036 31.1989 51.9887 35.9498 50.0209C40.7007 48.053 44.7613 44.7205 47.6182 40.4448C50.4751 36.1691 52 31.1423 52 26C51.9927 19.1066 49.2511 12.4976 44.3767 7.62326C39.5024 2.74889 32.8934 0.00727955 26 0ZM26 48C21.6488 48 17.3953 46.7097 13.7775 44.2923C10.1596 41.8749 7.33979 38.439 5.67466 34.419C4.00953 30.3991 3.57386 25.9756 4.42274 21.708C5.27161 17.4404 7.36691 13.5204 10.4437 10.4437C13.5204 7.3669 17.4404 5.2716 21.708 4.42272C25.9756 3.57385 30.3991 4.00952 34.419 5.67465C38.439 7.33978 41.875 10.1596 44.2923 13.7775C46.7097 17.3953 48 21.6488 48 26C47.9934 31.8327 45.6734 37.4247 41.5491 41.549C37.4247 45.6734 31.8327 47.9934 26 48ZM32 18H20C19.4696 18 18.9609 18.2107 18.5858 18.5858C18.2107 18.9609 18 19.4696 18 20V32C18 32.5304 18.2107 33.0391 18.5858 33.4142C18.9609 33.7893 19.4696 34 20 34H32C32.5304 34 33.0392 33.7893 33.4142 33.4142C33.7893 33.0391 34 32.5304 34 32V20C34 19.4696 33.7893 18.9609 33.4142 18.5858C33.0392 18.2107 32.5304 18 32 18ZM30 30H22V22H30V30Z" fill="#F8FBFC"/>
</svg>
